<mxfile host="app.diagrams.net" modified="2020-12-15T11:29:54.850Z" agent="5.0 (Windows NT 10.0; Win64; x64) AppleWebKit/537.36 (KHTML, like Gecko) Chrome/87.0.4280.88 Safari/537.36" etag="OKn5GCEFIgYBjKFiLMd6" version="13.11.0" type="github">
  <diagram id="C5RBs43oDa-KdzZeNtuy" name="Page-1">
    <mxGraphModel dx="1697" dy="929" grid="1" gridSize="10" guides="1" tooltips="1" connect="1" arrows="1" fold="1" page="1" pageScale="1" pageWidth="827" pageHeight="1169" math="0" shadow="0">
      <root>
        <mxCell id="WIyWlLk6GJQsqaUBKTNV-0" />
        <mxCell id="WIyWlLk6GJQsqaUBKTNV-1" parent="WIyWlLk6GJQsqaUBKTNV-0" />
        <mxCell id="D-kF7seSspId2RZwhmG2-3" style="edgeStyle=orthogonalEdgeStyle;rounded=0;orthogonalLoop=1;jettySize=auto;html=1;entryX=-0.05;entryY=0.553;entryDx=0;entryDy=0;entryPerimeter=0;strokeColor=#006658;fontColor=#5C5C5C;" edge="1" parent="WIyWlLk6GJQsqaUBKTNV-1" source="D-kF7seSspId2RZwhmG2-0" target="D-kF7seSspId2RZwhmG2-4">
          <mxGeometry relative="1" as="geometry">
            <mxPoint x="360" y="295" as="targetPoint" />
          </mxGeometry>
        </mxCell>
        <mxCell id="D-kF7seSspId2RZwhmG2-0" value="ivs_result_move_det" style="whiteSpace=wrap;html=1;aspect=fixed;fillColor=#21C0A5;strokeColor=#006658;fontColor=#5C5C5C;" vertex="1" parent="WIyWlLk6GJQsqaUBKTNV-1">
          <mxGeometry x="80" y="200" width="200" height="200" as="geometry" />
        </mxCell>
        <mxCell id="D-kF7seSspId2RZwhmG2-8" style="edgeStyle=orthogonalEdgeStyle;rounded=0;orthogonalLoop=1;jettySize=auto;html=1;strokeColor=#006658;fontColor=#5C5C5C;" edge="1" parent="WIyWlLk6GJQsqaUBKTNV-1" source="D-kF7seSspId2RZwhmG2-1" target="D-kF7seSspId2RZwhmG2-7">
          <mxGeometry relative="1" as="geometry" />
        </mxCell>
        <mxCell id="D-kF7seSspId2RZwhmG2-9" value="通知涂鸦" style="edgeLabel;html=1;align=center;verticalAlign=middle;resizable=0;points=[];fontColor=#5C5C5C;" vertex="1" connectable="0" parent="D-kF7seSspId2RZwhmG2-8">
          <mxGeometry x="-0.2" y="-3" relative="1" as="geometry">
            <mxPoint as="offset" />
          </mxGeometry>
        </mxCell>
        <mxCell id="D-kF7seSspId2RZwhmG2-1" value="capture PIC&lt;br&gt;可以设置时间间隔，时间间隔到了后将图片送到涂鸦" style="whiteSpace=wrap;html=1;aspect=fixed;fillColor=#21C0A5;strokeColor=#006658;fontColor=#5C5C5C;" vertex="1" parent="WIyWlLk6GJQsqaUBKTNV-1">
          <mxGeometry x="600" y="200" width="200" height="200" as="geometry" />
        </mxCell>
        <mxCell id="D-kF7seSspId2RZwhmG2-5" style="edgeStyle=orthogonalEdgeStyle;rounded=0;orthogonalLoop=1;jettySize=auto;html=1;entryX=0;entryY=0.5;entryDx=0;entryDy=0;strokeColor=#006658;fontColor=#5C5C5C;" edge="1" parent="WIyWlLk6GJQsqaUBKTNV-1" source="D-kF7seSspId2RZwhmG2-4" target="D-kF7seSspId2RZwhmG2-1">
          <mxGeometry relative="1" as="geometry" />
        </mxCell>
        <mxCell id="D-kF7seSspId2RZwhmG2-4" value="消息队列" style="rounded=0;whiteSpace=wrap;html=1;fillColor=#21C0A5;strokeColor=#006658;fontColor=#5C5C5C;" vertex="1" parent="WIyWlLk6GJQsqaUBKTNV-1">
          <mxGeometry x="400" y="200" width="80" height="200" as="geometry" />
        </mxCell>
        <mxCell id="D-kF7seSspId2RZwhmG2-7" value="TUYA" style="ellipse;whiteSpace=wrap;html=1;fillColor=#21C0A5;strokeColor=#006658;fontColor=#5C5C5C;" vertex="1" parent="WIyWlLk6GJQsqaUBKTNV-1">
          <mxGeometry x="650" y="540" width="120" height="80" as="geometry" />
        </mxCell>
        <mxCell id="D-kF7seSspId2RZwhmG2-12" style="edgeStyle=orthogonalEdgeStyle;rounded=0;orthogonalLoop=1;jettySize=auto;html=1;entryX=0;entryY=0.5;entryDx=0;entryDy=0;strokeColor=#006658;fontColor=#5C5C5C;" edge="1" parent="WIyWlLk6GJQsqaUBKTNV-1" source="D-kF7seSspId2RZwhmG2-10" target="D-kF7seSspId2RZwhmG2-11">
          <mxGeometry relative="1" as="geometry" />
        </mxCell>
        <mxCell id="D-kF7seSspId2RZwhmG2-10" value="ivs_result_person_det&lt;br&gt;开启人形侦测，需要关闭移动侦测" style="whiteSpace=wrap;html=1;aspect=fixed;fillColor=#21C0A5;strokeColor=#006658;fontColor=#5C5C5C;" vertex="1" parent="WIyWlLk6GJQsqaUBKTNV-1">
          <mxGeometry x="80" y="430" width="200" height="200" as="geometry" />
        </mxCell>
        <mxCell id="D-kF7seSspId2RZwhmG2-13" style="edgeStyle=orthogonalEdgeStyle;rounded=0;orthogonalLoop=1;jettySize=auto;html=1;exitX=1;exitY=0.5;exitDx=0;exitDy=0;entryX=0.001;entryY=0.598;entryDx=0;entryDy=0;entryPerimeter=0;strokeColor=#006658;fontColor=#5C5C5C;" edge="1" parent="WIyWlLk6GJQsqaUBKTNV-1" source="D-kF7seSspId2RZwhmG2-11" target="D-kF7seSspId2RZwhmG2-1">
          <mxGeometry relative="1" as="geometry" />
        </mxCell>
        <mxCell id="D-kF7seSspId2RZwhmG2-11" value="消息队列" style="rounded=0;whiteSpace=wrap;html=1;fillColor=#21C0A5;strokeColor=#006658;fontColor=#5C5C5C;" vertex="1" parent="WIyWlLk6GJQsqaUBKTNV-1">
          <mxGeometry x="400" y="430" width="80" height="200" as="geometry" />
        </mxCell>
        <mxCell id="D-kF7seSspId2RZwhmG2-121" value="消息队列" style="rounded=0;whiteSpace=wrap;html=1;shadow=0;fillColor=none;" vertex="1" parent="WIyWlLk6GJQsqaUBKTNV-1">
          <mxGeometry x="270" y="720" width="120" height="210" as="geometry" />
        </mxCell>
        <mxCell id="D-kF7seSspId2RZwhmG2-123" value="" style="rounded=0;whiteSpace=wrap;html=1;shadow=0;fillColor=none;" vertex="1" parent="WIyWlLk6GJQsqaUBKTNV-1">
          <mxGeometry x="270" y="720" width="120" height="30" as="geometry" />
        </mxCell>
        <mxCell id="D-kF7seSspId2RZwhmG2-124" value="" style="rounded=0;whiteSpace=wrap;html=1;shadow=0;fillColor=none;" vertex="1" parent="WIyWlLk6GJQsqaUBKTNV-1">
          <mxGeometry x="270" y="750" width="120" height="30" as="geometry" />
        </mxCell>
        <mxCell id="D-kF7seSspId2RZwhmG2-125" value="" style="rounded=0;whiteSpace=wrap;html=1;shadow=0;fillColor=none;" vertex="1" parent="WIyWlLk6GJQsqaUBKTNV-1">
          <mxGeometry x="270" y="780" width="120" height="30" as="geometry" />
        </mxCell>
        <mxCell id="D-kF7seSspId2RZwhmG2-126" value="" style="rounded=0;whiteSpace=wrap;html=1;shadow=0;fillColor=none;" vertex="1" parent="WIyWlLk6GJQsqaUBKTNV-1">
          <mxGeometry x="270" y="810" width="120" height="30" as="geometry" />
        </mxCell>
        <mxCell id="D-kF7seSspId2RZwhmG2-127" value="" style="rounded=0;whiteSpace=wrap;html=1;shadow=0;fillColor=none;" vertex="1" parent="WIyWlLk6GJQsqaUBKTNV-1">
          <mxGeometry x="270" y="840" width="120" height="30" as="geometry" />
        </mxCell>
        <mxCell id="D-kF7seSspId2RZwhmG2-128" value="" style="rounded=0;whiteSpace=wrap;html=1;shadow=0;fillColor=none;" vertex="1" parent="WIyWlLk6GJQsqaUBKTNV-1">
          <mxGeometry x="270" y="870" width="120" height="30" as="geometry" />
        </mxCell>
      </root>
    </mxGraphModel>
  </diagram>
</mxfile>
